<?xml version="1.0" encoding="UTF-8"?>
<svg xmlns="http://www.w3.org/2000/svg" viewBox="0 0 54.25 69.72">
  <defs>
    <style>
      .cls-1 {
        fill: #b37fc6;
      }

      .cls-2 {
        fill: #00a651;
      }

      .cls-3 {
        isolation: isolate;
      }

      .cls-4 {
        fill: #fff;
      }

      .cls-5 {
        fill: #803a99;
      }

      .cls-6 {
        fill: #d6b8db;
      }

      .cls-7 {
        opacity: .4;
      }

      .cls-8 {
        mix-blend-mode: overlay;
        opacity: .5;
      }

      .cls-9 {
        fill: #4f225b;
      }
    </style>
  </defs>
  <g class="cls-3">
    <g id="Layer_2" data-name="Layer 2">
      <g id="Layer_1-2" data-name="Layer 1">
        <g>
          <g>
            <path class="cls-2" d="M52.09,36.82c-.27-.08-.51-.25-.67-.51-.21-.33-.43-.65-.66-.96-.39-.51-.3-1.24.19-1.65.39-.33.77-.68,1.13-1.06.46-.48,1.21-.5,1.7-.04.48.46.5,1.22.04,1.7-.17.17-.33.34-.51.51.05.07.1.15.14.22.35.56.19,1.3-.37,1.65-.31.19-.66.23-.99.13Z"/>
            <path class="cls-9" d="M21.73,46.8c-.11-.03-.21-.08-.31-.14-.4-.26-.61-.73-.53-1.21.13-.77.31-1.54.54-2.29,1.26-4.19,3.95-7.99,8.01-11.3.52-.42,1.27-.34,1.69.17.42.51.34,1.27-.17,1.69-3.45,2.82-5.81,5.99-7.01,9.44,2.87-1.5,6.76-2.93,11.55-3.33.66-.06,1.24.44,1.29,1.1.05.66-.44,1.24-1.1,1.29-5.9.49-10.3,2.68-12.96,4.43-.3.2-.67.25-1.01.15Z"/>
            <path class="cls-1" d="M52.09,36.82c-.27-.08-.51-.25-.67-.51-.2-.33-.42-.64-.66-.95-.39-.51-.31-1.24.19-1.65.39-.32.77-.68,1.13-1.06.46-.48,1.21-.5,1.7-.04.48.46.5,1.22.04,1.7-.16.17-.33.34-.51.51.05.07.09.14.14.22.35.56.18,1.3-.38,1.65-.31.19-.66.23-.98.13Z"/>
            <path class="cls-5" d="M10.61,12.52c-.15-.05-.3-.12-.43-.23-.51-.43-.57-1.19-.14-1.69,1.49-1.76,3.33-3.13,5.46-4.09,2.65-1.19,5.58-1.97,8.69-2.31.66-.08,1.25.4,1.33,1.06.07.66-.4,1.25-1.06,1.33-2.87.32-5.55,1.03-7.98,2.12-1.8.81-3.35,1.97-4.61,3.45-.32.38-.82.51-1.26.37Z"/>
            <path class="cls-5" d="M19.41,3.27c-.4-.12-.72-.44-.82-.87-.15-.65.24-1.29.89-1.45,9.21-2.2,19.96-.58,30.09,4.46.59.3.83,1.02.54,1.61-.3.59-1.01.83-1.61.54C38.87,2.78,28.69,1.23,20.03,3.29c-.21.05-.43.04-.62-.02Z"/>
            <path class="cls-1" d="M13.55,68.78c-1.88-.56-3.63-1.38-5.19-2.43-.55-.37-.7-1.11-.33-1.66.37-.55,1.11-.71,1.66-.33,1.36.91,2.89,1.62,4.54,2.12,4.64,1.39,8.81.62,8.86.61,3.41-.7,6.47-2.37,8.83-4.85.03-.03.06-.06.09-.08.46-.39,2.94-2.31,7.12-2,.21.02.43.03.64.04.67.02,1.18.58,1.15,1.24-.02.66-.58,1.18-1.24,1.15-.24,0-.49-.02-.73-.04-3.15-.24-5,1.12-5.35,1.4-2.69,2.8-6.17,4.7-10.05,5.5-.2.04-4.78.9-10.01-.67Z"/>
            <path class="cls-1" d="M2.57,55.93c-.33-.1-.62-.34-.76-.69-.26-.61.03-1.31.64-1.57,1.29-.54,2.76-1.39,4.36-2.52.54-.38,1.29-.25,1.67.29.38.54.25,1.29-.29,1.67-1.75,1.23-3.37,2.16-4.82,2.77-.27.11-.55.12-.81.04Z"/>
            <path class="cls-9" d="M1.62,37.09c-.18-.05-.35-.15-.49-.29-.47-.46-.48-1.22-.02-1.7,1.21-1.23,2.35-2.77,3.75-5.06-.28-.51-.55-1.03-.79-1.57-.31-.69-.58-1.4-.8-2.11-.2-.63.15-1.31.78-1.51.63-.2,1.31.15,1.51.78.2.62.43,1.24.7,1.85.3.67.64,1.32,1.02,1.93.23.38.24.86,0,1.24-1.68,2.8-3.01,4.63-4.46,6.11-.32.33-.79.43-1.2.31Z"/>
            <path class="cls-1" d="M.9,42.84c-.25-.08-.48-.24-.64-.47-.37-.55-.23-1.29.31-1.67,1.69-1.16,3.01-2.31,4.26-3.75.44-.5,1.19-.55,1.69-.11.5.44.55,1.19.11,1.69-1.38,1.57-2.87,2.89-4.71,4.15-.31.21-.69.26-1.02.16Z"/>
            <path class="cls-5" d="M50.21,43.3c-.45-.13-.8-.53-.85-1.02-.35-3.23-2.41-6.04-5.37-7.33-.45-.19-.73-.64-.72-1.13.01-.49.32-.92.78-1.09.09-.03.76-.28,1.08-.38h0c2.49-.72,4.55-2.47,5.65-4.79.28-.6,1-.85,1.6-.57.6.28.86,1,.57,1.6-1.17,2.47-3.19,4.43-5.67,5.53,2.48,1.88,4.13,4.73,4.47,7.91.07.66-.41,1.25-1.07,1.32-.16.02-.32,0-.47-.04Z"/>
            <path class="cls-5" d="M18.91,65.79c-.51-.15-.87-.63-.85-1.18.02-.66.57-1.18,1.23-1.17,3.74.11,7.31-1.37,9.82-4.05.7-.66,4.25-3.67,10.32-3.22,1.23.09,2.46.01,3.65-.23.65-.14,1.28.28,1.42.93.14.65-.28,1.28-.93,1.42-1.41.29-2.86.39-4.32.28-5.18-.39-8.12,2.22-8.44,2.52-2.92,3.13-7.17,4.88-11.59,4.76-.11,0-.21-.02-.31-.05Z"/>
            <path class="cls-6" d="M28.69,57.09c-.26-.08-.5-.25-.66-.5-.36-.56-.19-1.3.36-1.66,2.29-1.47,6.13-3.14,11.35-2.75,2.36.18,4.65-.56,6.46-2.08.51-.43,1.27-.36,1.69.15.43.51.36,1.26-.15,1.69-2.29,1.92-5.2,2.86-8.18,2.63-4.56-.34-7.89,1.1-9.88,2.37-.31.2-.67.24-.99.14Z"/>
            <path class="cls-5" d="M52.7,15.18c-.2-.06-.38-.17-.53-.33-.93-.99-2-1.84-3.19-2.5-.39-.22-.77-.42-1.16-.63-.59-.31-.81-1.03-.5-1.62s1.04-.82,1.62-.5c.4.21.81.43,1.21.66,1.41.79,2.68,1.78,3.78,2.96.45.49.42,1.24-.06,1.7-.32.3-.77.39-1.16.27Z"/>
            <path class="cls-1" d="M27.97,6.33c-.5-.15-.86-.61-.85-1.16,0-.66.55-1.2,1.21-1.19,5.5.05,11.27,1.37,16.93,3.84.61.26.88.97.62,1.58s-.97.89-1.58.62c-5.37-2.34-10.82-3.59-16-3.64-.12,0-.23-.02-.33-.05Z"/>
            <path class="cls-5" d="M.86,47.6c-.28-.08-.53-.27-.69-.54-.34-.57-.15-1.31.42-1.64,5.36-3.17,8.06-6.03,12.01-12.76,0,0,0,0,0-.01.62-1.08,1.32-2.14,2.08-3.17-.45-.35-.86-.74-1.25-1.16-.45-.49-.42-1.24.06-1.7s1.24-.42,1.7.06c.54.58,1.16,1.09,1.83,1.51.29.18.49.48.55.81.06.34-.03.68-.24.95-.99,1.25-1.89,2.57-2.66,3.91,0,0,0,.02-.01.03-4.14,7.04-7.14,10.22-12.84,13.59-.3.18-.65.21-.96.12Z"/>
            <path class="cls-6" d="M11.88,25.27c-.35-.1-.64-.36-.78-.73-.87-2.34-.96-4.84-.24-7.24.08-.27.17-.53.27-.8,1.09-2.85,3.22-5.1,5.99-6.34,3.74-1.68,8.21-2.41,12.91-2.11.66.04,1.16.61,1.12,1.27s-.61,1.16-1.27,1.12c-4.32-.27-8.39.39-11.78,1.91-2.19.98-3.87,2.76-4.73,5.01-.08.21-.15.42-.22.64-.57,1.89-.5,3.86.19,5.71.23.62-.08,1.31-.7,1.54-.25.09-.52.1-.76.03Z"/>
            <path class="cls-1" d="M52.48,25.36c-.52-.16-.88-.65-.85-1.21.18-3.44-1.58-6.63-4.6-8.31-4.38-2.45-8.9-4.14-13.31-4.93-.64-.11-1.08-.74-.97-1.39.12-.65.74-1.09,1.39-.97,4.67.85,9.44,2.63,14.05,5.2,3.82,2.13,6.05,6.17,5.83,10.53-.03.66-.6,1.17-1.26,1.14-.1,0-.19-.02-.28-.05Z"/>
            <path class="cls-1" d="M7.81,35.7c-.11-.03-.22-.09-.33-.15-.55-.37-.7-1.12-.33-1.67.73-1.08,1.51-2.34,2.43-3.93-.74-.96-1.36-2-1.86-3.11-1.51-3.37-1.76-7.17-.7-10.69.04-.14.09-.28.13-.42.2-.62.86-.96,1.48-.77.01,0,.02,0,.03.01.63.21.97.89.76,1.52-.04.12-.08.23-.11.35-.89,2.97-.68,6.18.59,9.02.52,1.16,1.2,2.24,2.03,3.19.33.39.39.94.13,1.38-1.14,1.98-2.07,3.5-2.93,4.78-.3.45-.85.63-1.34.48Z"/>
            <path class="cls-6" d="M1.43,52.11c-.29-.09-.55-.28-.7-.57-.32-.58-.11-1.31.47-1.63,6.15-3.41,9.49-6.55,13.23-12.43.36-.56,1.1-.72,1.66-.37.56.36.73,1.1.37,1.66-3.98,6.27-7.53,9.61-14.09,13.24-.29.16-.63.19-.93.1Z"/>
            <path class="cls-5" d="M17.15,35.85c-.09-.03-.17-.06-.26-.11-.57-.33-.77-1.07-.44-1.64l.65-1.14c1.24-2.17,2.53-3.7,3.95-5.03-.47-.05-.94-.14-1.4-.28-2.06-.62-3.75-2.1-4.63-4.07-.73-1.62-.84-3.44-.34-5.14.05-.17.11-.35.18-.52.7-1.84,2.08-3.31,3.89-4.11.73-.33,1.51-.62,2.3-.86.63-.19,1.3.16,1.5.8.19.63-.17,1.3-.8,1.5-.7.21-1.38.46-2.02.75-1.22.55-2.15,1.53-2.63,2.78-.05.12-.09.24-.12.36-.35,1.16-.27,2.36.23,3.47.59,1.33,1.73,2.33,3.13,2.75,1.15.34,2.38.26,3.48-.23.41-.18.85-.33,1.32-.45.55-.14,1.12.13,1.37.64.25.51.11,1.12-.33,1.47l-.21.17c-2.81,2.21-4.84,3.81-6.77,7.2l-.66,1.15c-.28.49-.86.7-1.38.55Z"/>
            <path class="cls-1" d="M30.34,38.88c-.29-.09-.55-.29-.7-.57-.26-.46-.18-1.04.19-1.42,5.65-5.76,13.83-8.28,14.17-8.38,1.66-.48,2.93-1.73,3.42-3.36.09-.28.15-.58.18-.87.18-1.52-.34-3.02-1.41-4.09-.47-.47-.46-1.23,0-1.7s1.23-.46,1.7,0c1.59,1.6,2.35,3.81,2.09,6.06-.05.43-.14.87-.26,1.29-.72,2.41-2.61,4.27-5.04,4.97-.05.02-5.25,1.63-10,5.08.68-.07,1.36-.11,2.05-.14.66-.03,1.22.49,1.25,1.15.02.66-.49,1.22-1.15,1.25-1.99.08-3.97.33-5.88.76-.21.05-.41.04-.61-.02Z"/>
            <path class="cls-9" d="M24.99,14.46c-.45-.13-.8-.53-.85-1.02-.07-.66.41-1.25,1.07-1.32,5.81-.62,12.55.83,19,4.04.59.3.84,1.02.54,1.61-.3.59-1.02.84-1.61.54-6.04-3.01-12.32-4.37-17.67-3.8-.16.02-.32,0-.47-.04Z"/>
            <path class="cls-9" d="M40.18,50.56c-.49-.15-.85-.59-.85-1.13-.01-.66.52-1.21,1.18-1.22,1.18-.02,2.27-.44,3.17-1.21.73-.63,1.25-1.44,1.53-2.34.1-.35.17-.71.2-1.07.17-2.32-1.32-4.49-3.54-5.16-.35-.11-.72-.17-1.06-.2,0,0-.1,0-.11,0-.67-.04-1.16-.63-1.11-1.29.05-.66.63-1.16,1.29-1.11h.09c.51.04,1.06.14,1.59.3,3.3.99,5.5,4.2,5.25,7.64-.04.54-.14,1.07-.29,1.59-.4,1.34-1.18,2.54-2.26,3.47-1.31,1.13-2.98,1.76-4.7,1.79-.13,0-.25-.02-.36-.05Z"/>
            <path class="cls-5" d="M17.55,57.54l-.14-.04c-2.9-.99-4.9-3.54-5.12-6.5-.02-.3-.06-.64-.09-1,0-.01,0-.02,0-.04-.23.2-.49.42-.76.64-.51.43-1.26.36-1.69-.15-.43-.51-.36-1.27.15-1.69,1.5-1.25,2.49-2.23,2.5-2.24.35-.34.88-.44,1.32-.24.45.2.73.65.72,1.14-.02.63.07,1.54.15,2.34.04.38.07.74.1,1.06.15,2.03,1.48,3.71,3.48,4.4l.09.03c1.8.54,3.84-.01,5.07-1.38.52-.54,5.08-5.05,13.1-5.67.66-.05,1.24.44,1.29,1.11.05.66-.44,1.24-1.11,1.29-7.25.55-11.36,4.73-11.53,4.91-1.84,2.05-4.81,2.86-7.54,2.04Z"/>
            <path class="cls-9" d="M4.53,59.66c-.32-.1-.6-.33-.75-.66-.27-.61,0-1.32.61-1.58,2.06-.92,4.13-2.3,5.51-3.29.28-.21.64-.28.98-.2.33.09.63.3.79.62,1.09,2.11,2.97,3.7,5.29,4.49l.15.05c2.79.84,5.83.27,8.11-1.53.52-.41,1.27-.32,1.68.2.41.52.32,1.28-.2,1.68-2.9,2.28-6.75,3-10.3,1.93l-.2-.06c-2.48-.85-4.56-2.42-5.97-4.5-1.38.94-3.11,2.01-4.87,2.79-.27.12-.57.13-.83.05Z"/>
            <path class="cls-1" d="M7.21,62.82c-.31-.09-.58-.31-.73-.62-.29-.59-.05-1.31.54-1.61.66-.33,1.33-.7,2.05-1.13.47-.28,1.07-.21,1.46.17,1.44,1.42,3.23,2.52,5.18,3.2.63.22.96.9.75,1.52-.21.63-.94.94-1.52.75-2-.69-3.85-1.76-5.41-3.13-.49.28-.97.53-1.45.77-.28.14-.6.16-.88.07Z"/>
            <path class="cls-5" d="M33.1,31.6c-.26-.08-.5-.25-.66-.5-.36-.56-.2-1.3.36-1.66,5.18-3.32,10.07-4.76,10.12-4.78.33-.1.59-.35.69-.67.02-.06.03-.12.04-.18.05-.4-.15-.79-.5-.99-4.6-2.57-9.35-4.11-13.64-4.4-.66-.04-1.16-.62-1.12-1.28.05-.66.62-1.16,1.28-1.12,4.65.32,9.74,1.96,14.65,4.7,1.2.67,1.88,1.99,1.72,3.36-.02.2-.06.4-.12.59-.33,1.11-1.2,1.97-2.32,2.29-.04.01-4.64,1.38-9.48,4.49-.31.2-.67.24-.99.14Z"/>
            <path class="cls-1" d="M20.81,23.82c-.95-.28-1.72-.97-2.13-1.87-.33-.75-.39-1.58-.15-2.36.02-.08.05-.16.08-.24.32-.85.96-1.52,1.79-1.89,1.51-.68,3.21-1.13,5.04-1.34.66-.08,1.26.4,1.33,1.05.08.66-.39,1.25-1.05,1.33-1.59.19-3.05.57-4.34,1.15-.25.11-.43.3-.53.56-.09.3-.08.54.02.76.22.48.84.72,1.32.5,3.31-1.48,7.81-1.49,12.7-.02.88.26,1.77.57,2.65.92.45.18.75.61.76,1.09.01.48-.27.92-.71,1.12-1,.45-2.01.95-2.98,1.48-.58.31-1.31.1-1.63-.49s-.1-1.31.49-1.63c.17-.09.33-.18.5-.26-4.24-1.23-8.06-1.24-10.79-.02-.74.33-1.58.39-2.37.15Z"/>
            <path class="cls-1" d="M18.7,53.71s-.03,0-.05-.02c-.01,0-.03,0-.04-.01-1.31-.45-2.22-1.62-2.32-2.97-.23-3.08.08-6.08.92-8.89,1.83-6.12,6.12-11.42,12.73-15.77.55-.36,1.3-.21,1.66.34.36.55.21,1.3-.34,1.66-6.13,4.03-10.09,8.9-11.75,14.46-.76,2.53-1.04,5.23-.83,8.02.03.41.3.74.7.88h0c.36.11.78,0,1.03-.28.08-.09,7.36-7.86,19.92-6.92.27.02.52-.06.73-.24.14-.12.25-.29.3-.47.02-.07.04-.14.04-.21.04-.46-.27-.9-.7-1.03-.07-.02-.14-.03-.21-.04-.33-.02-.65-.04-.96-.06-.66-.03-1.17-.59-1.15-1.25.03-.66.59-1.17,1.25-1.15.34.02.68.04,1.02.06.23.02.48.06.73.13,1.51.45,2.53,1.93,2.41,3.51-.02.24-.06.49-.13.73-.19.62-.55,1.17-1.04,1.6-.69.59-1.57.88-2.47.81-11.3-.84-17.9,6.07-17.97,6.14-.86.96-2.24,1.34-3.49.97Z"/>
          </g>
          <g class="cls-7">
            <path class="cls-4" d="M52.09,36.82c-.27-.08-.51-.25-.67-.51-.21-.33-.43-.65-.66-.96-.39-.51-.3-1.24.19-1.65.39-.33.77-.68,1.13-1.06.46-.48,1.21-.5,1.7-.04.48.46.5,1.22.04,1.7-.17.17-.33.34-.51.51.05.07.1.15.14.22.35.56.19,1.3-.37,1.65-.31.19-.66.23-.99.13Z"/>
            <path class="cls-4" d="M21.73,46.8c-.11-.03-.21-.08-.31-.14-.4-.26-.61-.73-.53-1.21.13-.77.31-1.54.54-2.29,1.26-4.19,3.95-7.99,8.01-11.3.52-.42,1.27-.34,1.69.17.42.51.34,1.27-.17,1.69-3.45,2.82-5.81,5.99-7.01,9.44,2.87-1.5,6.76-2.93,11.55-3.33.66-.06,1.24.44,1.29,1.1.05.66-.44,1.24-1.1,1.29-5.9.49-10.3,2.68-12.96,4.43-.3.2-.67.25-1.01.15Z"/>
            <path class="cls-4" d="M52.09,36.82c-.27-.08-.51-.25-.67-.51-.2-.33-.42-.64-.66-.95-.39-.51-.31-1.24.19-1.65.39-.32.77-.68,1.13-1.06.46-.48,1.21-.5,1.7-.04.48.46.5,1.22.04,1.7-.16.17-.33.34-.51.51.05.07.09.14.14.22.35.56.18,1.3-.38,1.65-.31.19-.66.23-.98.13Z"/>
            <path class="cls-4" d="M10.61,12.52c-.15-.05-.3-.12-.43-.23-.51-.43-.57-1.19-.14-1.69,1.49-1.76,3.33-3.13,5.46-4.09,2.65-1.19,5.58-1.97,8.69-2.31.66-.08,1.25.4,1.33,1.06.07.66-.4,1.25-1.06,1.33-2.87.32-5.55,1.03-7.98,2.12-1.8.81-3.35,1.97-4.61,3.45-.32.38-.82.51-1.26.37Z"/>
            <path class="cls-4" d="M19.41,3.27c-.4-.12-.72-.44-.82-.87-.15-.65.24-1.29.89-1.45,9.21-2.2,19.96-.58,30.09,4.46.59.3.83,1.02.54,1.61-.3.59-1.01.83-1.61.54C38.87,2.78,28.69,1.23,20.03,3.29c-.21.05-.43.04-.62-.02Z"/>
            <path class="cls-4" d="M13.55,68.78c-1.88-.56-3.63-1.38-5.19-2.43-.55-.37-.7-1.11-.33-1.66.37-.55,1.11-.71,1.66-.33,1.36.91,2.89,1.62,4.54,2.12,4.64,1.39,8.81.62,8.86.61,3.41-.7,6.47-2.37,8.83-4.85.03-.03.06-.06.09-.08.46-.39,2.94-2.31,7.12-2,.21.02.43.03.64.04.67.02,1.18.58,1.15,1.24-.02.66-.58,1.18-1.24,1.15-.24,0-.49-.02-.73-.04-3.15-.24-5,1.12-5.35,1.4-2.69,2.8-6.17,4.7-10.05,5.5-.2.04-4.78.9-10.01-.67Z"/>
            <path class="cls-4" d="M2.57,55.93c-.33-.1-.62-.34-.76-.69-.26-.61.03-1.31.64-1.57,1.29-.54,2.76-1.39,4.36-2.52.54-.38,1.29-.25,1.67.29.38.54.25,1.29-.29,1.67-1.75,1.23-3.37,2.16-4.82,2.77-.27.11-.55.12-.81.04Z"/>
            <path class="cls-4" d="M1.62,37.09c-.18-.05-.35-.15-.49-.29-.47-.46-.48-1.22-.02-1.7,1.21-1.23,2.35-2.77,3.75-5.06-.28-.51-.55-1.03-.79-1.57-.31-.69-.58-1.4-.8-2.11-.2-.63.15-1.31.78-1.51.63-.2,1.31.15,1.51.78.2.62.43,1.24.7,1.85.3.67.64,1.32,1.02,1.93.23.38.24.86,0,1.24-1.68,2.8-3.01,4.63-4.46,6.11-.32.33-.79.43-1.2.31Z"/>
            <path class="cls-4" d="M.9,42.84c-.25-.08-.48-.24-.64-.47-.37-.55-.23-1.29.31-1.67,1.69-1.16,3.01-2.31,4.26-3.75.44-.5,1.19-.55,1.69-.11.5.44.55,1.19.11,1.69-1.38,1.57-2.87,2.89-4.71,4.15-.31.21-.69.26-1.02.16Z"/>
            <path class="cls-4" d="M50.21,43.3c-.45-.13-.8-.53-.85-1.02-.35-3.23-2.41-6.04-5.37-7.33-.45-.19-.73-.64-.72-1.13.01-.49.32-.92.78-1.09.09-.03.76-.28,1.08-.38h0c2.49-.72,4.55-2.47,5.65-4.79.28-.6,1-.85,1.6-.57.6.28.86,1,.57,1.6-1.17,2.47-3.19,4.43-5.67,5.53,2.48,1.88,4.13,4.73,4.47,7.91.07.66-.41,1.25-1.07,1.32-.16.02-.32,0-.47-.04Z"/>
            <path class="cls-4" d="M18.91,65.79c-.51-.15-.87-.63-.85-1.18.02-.66.57-1.18,1.23-1.17,3.74.11,7.31-1.37,9.82-4.05.7-.66,4.25-3.67,10.32-3.22,1.23.09,2.46.01,3.65-.23.65-.14,1.28.28,1.42.93.14.65-.28,1.28-.93,1.42-1.41.29-2.86.39-4.32.28-5.18-.39-8.12,2.22-8.44,2.52-2.92,3.13-7.17,4.88-11.59,4.76-.11,0-.21-.02-.31-.05Z"/>
            <path class="cls-4" d="M28.69,57.09c-.26-.08-.5-.25-.66-.5-.36-.56-.19-1.3.36-1.66,2.29-1.47,6.13-3.14,11.35-2.75,2.36.18,4.65-.56,6.46-2.08.51-.43,1.27-.36,1.69.15.43.51.36,1.26-.15,1.69-2.29,1.92-5.2,2.86-8.18,2.63-4.56-.34-7.89,1.1-9.88,2.37-.31.2-.67.24-.99.14Z"/>
            <path class="cls-4" d="M52.7,15.18c-.2-.06-.38-.17-.53-.33-.93-.99-2-1.84-3.19-2.5-.39-.22-.77-.42-1.16-.63-.59-.31-.81-1.03-.5-1.62s1.04-.82,1.62-.5c.4.21.81.43,1.21.66,1.41.79,2.68,1.78,3.78,2.96.45.49.42,1.24-.06,1.7-.32.3-.77.39-1.16.27Z"/>
            <path class="cls-4" d="M27.97,6.33c-.5-.15-.86-.61-.85-1.16,0-.66.55-1.2,1.21-1.19,5.5.05,11.27,1.37,16.93,3.84.61.26.88.97.62,1.58s-.97.89-1.58.62c-5.37-2.34-10.82-3.59-16-3.64-.12,0-.23-.02-.33-.05Z"/>
            <path class="cls-4" d="M.86,47.6c-.28-.08-.53-.27-.69-.54-.34-.57-.15-1.31.42-1.64,5.36-3.17,8.06-6.03,12.01-12.76,0,0,0,0,0-.01.62-1.08,1.32-2.14,2.08-3.17-.45-.35-.86-.74-1.25-1.16-.45-.49-.42-1.24.06-1.7s1.24-.42,1.7.06c.54.58,1.16,1.09,1.83,1.51.29.18.49.48.55.81.06.34-.03.68-.24.95-.99,1.25-1.89,2.57-2.66,3.91,0,0,0,.02-.01.03-4.14,7.04-7.14,10.22-12.84,13.59-.3.18-.65.21-.96.12Z"/>
            <path class="cls-4" d="M11.88,25.27c-.35-.1-.64-.36-.78-.73-.87-2.34-.96-4.84-.24-7.24.08-.27.17-.53.27-.8,1.09-2.85,3.22-5.1,5.99-6.34,3.74-1.68,8.21-2.41,12.91-2.11.66.04,1.16.61,1.12,1.27s-.61,1.16-1.27,1.12c-4.32-.27-8.39.39-11.78,1.91-2.19.98-3.87,2.76-4.73,5.01-.08.21-.15.42-.22.64-.57,1.89-.5,3.86.19,5.71.23.62-.08,1.31-.7,1.54-.25.09-.52.1-.76.03Z"/>
            <path class="cls-4" d="M52.48,25.36c-.52-.16-.88-.65-.85-1.21.18-3.44-1.58-6.63-4.6-8.31-4.38-2.45-8.9-4.14-13.31-4.93-.64-.11-1.08-.74-.97-1.39.12-.65.74-1.09,1.39-.97,4.67.85,9.44,2.63,14.05,5.2,3.82,2.13,6.05,6.17,5.83,10.53-.03.66-.6,1.17-1.26,1.14-.1,0-.19-.02-.28-.05Z"/>
            <path class="cls-4" d="M7.81,35.7c-.11-.03-.22-.09-.33-.15-.55-.37-.7-1.12-.33-1.67.73-1.08,1.51-2.34,2.43-3.93-.74-.96-1.36-2-1.86-3.11-1.51-3.37-1.76-7.17-.7-10.69.04-.14.09-.28.13-.42.2-.62.86-.96,1.48-.77.01,0,.02,0,.03.01.63.21.97.89.76,1.52-.04.12-.08.23-.11.35-.89,2.97-.68,6.18.59,9.02.52,1.16,1.2,2.24,2.03,3.19.33.39.39.94.13,1.38-1.14,1.98-2.07,3.5-2.93,4.78-.3.45-.85.63-1.34.48Z"/>
            <path class="cls-4" d="M1.43,52.11c-.29-.09-.55-.28-.7-.57-.32-.58-.11-1.31.47-1.63,6.15-3.41,9.49-6.55,13.23-12.43.36-.56,1.1-.72,1.66-.37.56.36.73,1.1.37,1.66-3.98,6.27-7.53,9.61-14.09,13.24-.29.16-.63.19-.93.1Z"/>
            <path class="cls-4" d="M17.15,35.85c-.09-.03-.17-.06-.26-.11-.57-.33-.77-1.07-.44-1.64l.65-1.14c1.24-2.17,2.53-3.7,3.95-5.03-.47-.05-.94-.14-1.4-.28-2.06-.62-3.75-2.1-4.63-4.07-.73-1.62-.84-3.44-.34-5.14.05-.17.11-.35.18-.52.7-1.84,2.08-3.31,3.89-4.11.73-.33,1.51-.62,2.3-.86.63-.19,1.3.16,1.5.8.19.63-.17,1.3-.8,1.5-.7.21-1.38.46-2.02.75-1.22.55-2.15,1.53-2.63,2.78-.05.12-.09.24-.12.36-.35,1.16-.27,2.36.23,3.47.59,1.33,1.73,2.33,3.13,2.75,1.15.34,2.38.26,3.48-.23.41-.18.85-.33,1.32-.45.55-.14,1.12.13,1.37.64.25.51.11,1.12-.33,1.47l-.21.17c-2.81,2.21-4.84,3.81-6.77,7.2l-.66,1.15c-.28.49-.86.7-1.38.55Z"/>
            <path class="cls-4" d="M30.34,38.88c-.29-.09-.55-.29-.7-.57-.26-.46-.18-1.04.19-1.42,5.65-5.76,13.83-8.28,14.17-8.38,1.66-.48,2.93-1.73,3.42-3.36.09-.28.15-.58.18-.87.18-1.52-.34-3.02-1.41-4.09-.47-.47-.46-1.23,0-1.7s1.23-.46,1.7,0c1.59,1.6,2.35,3.81,2.09,6.06-.05.43-.14.87-.26,1.29-.72,2.41-2.61,4.27-5.04,4.97-.05.02-5.25,1.63-10,5.08.68-.07,1.36-.11,2.05-.14.66-.03,1.22.49,1.25,1.15.02.66-.49,1.22-1.15,1.25-1.99.08-3.97.33-5.88.76-.21.05-.41.04-.61-.02Z"/>
            <path class="cls-4" d="M24.99,14.46c-.45-.13-.8-.53-.85-1.02-.07-.66.41-1.25,1.07-1.32,5.81-.62,12.55.83,19,4.04.59.3.84,1.02.54,1.61-.3.59-1.02.84-1.61.54-6.04-3.01-12.32-4.37-17.67-3.8-.16.02-.32,0-.47-.04Z"/>
            <path class="cls-4" d="M40.18,50.56c-.49-.15-.85-.59-.85-1.13-.01-.66.52-1.21,1.18-1.22,1.18-.02,2.27-.44,3.17-1.21.73-.63,1.25-1.44,1.53-2.34.1-.35.17-.71.2-1.07.17-2.32-1.32-4.49-3.54-5.16-.35-.11-.72-.17-1.06-.2,0,0-.1,0-.11,0-.67-.04-1.16-.63-1.11-1.29.05-.66.63-1.16,1.29-1.11h.09c.51.04,1.06.14,1.59.3,3.3.99,5.5,4.2,5.25,7.64-.04.54-.14,1.07-.29,1.59-.4,1.34-1.18,2.54-2.26,3.47-1.31,1.13-2.98,1.76-4.7,1.79-.13,0-.25-.02-.36-.05Z"/>
            <path class="cls-4" d="M17.55,57.54l-.14-.04c-2.9-.99-4.9-3.54-5.12-6.5-.02-.3-.06-.64-.09-1,0-.01,0-.02,0-.04-.23.2-.49.42-.76.64-.51.43-1.26.36-1.69-.15-.43-.51-.36-1.27.15-1.69,1.5-1.25,2.49-2.23,2.5-2.24.35-.34.88-.44,1.32-.24.45.2.73.65.72,1.14-.02.63.07,1.54.15,2.34.04.38.07.74.1,1.06.15,2.03,1.48,3.71,3.48,4.4l.09.03c1.8.54,3.84-.01,5.07-1.38.52-.54,5.08-5.05,13.1-5.67.66-.05,1.24.44,1.29,1.11.05.66-.44,1.24-1.11,1.29-7.25.55-11.36,4.73-11.53,4.91-1.84,2.05-4.81,2.86-7.54,2.04Z"/>
            <path class="cls-4" d="M4.53,59.66c-.32-.1-.6-.33-.75-.66-.27-.61,0-1.32.61-1.58,2.06-.92,4.13-2.3,5.51-3.29.28-.21.64-.28.98-.2.33.09.63.3.79.62,1.09,2.11,2.97,3.7,5.29,4.49l.15.05c2.79.84,5.83.27,8.11-1.53.52-.41,1.27-.32,1.68.2.41.52.32,1.28-.2,1.68-2.9,2.28-6.75,3-10.3,1.93l-.2-.06c-2.48-.85-4.56-2.42-5.97-4.5-1.38.94-3.11,2.01-4.87,2.79-.27.12-.57.13-.83.05Z"/>
            <path class="cls-4" d="M7.21,62.82c-.31-.09-.58-.31-.73-.62-.29-.59-.05-1.31.54-1.61.66-.33,1.33-.7,2.05-1.13.47-.28,1.07-.21,1.46.17,1.44,1.42,3.23,2.52,5.18,3.2.63.22.96.9.75,1.52-.21.63-.94.94-1.52.75-2-.69-3.85-1.76-5.41-3.13-.49.28-.97.53-1.45.77-.28.14-.6.16-.88.07Z"/>
            <path class="cls-4" d="M33.1,31.6c-.26-.08-.5-.25-.66-.5-.36-.56-.2-1.3.36-1.66,5.18-3.32,10.07-4.76,10.12-4.78.33-.1.59-.35.69-.67.02-.06.03-.12.04-.18.05-.4-.15-.79-.5-.99-4.6-2.57-9.35-4.11-13.64-4.4-.66-.04-1.16-.62-1.12-1.28.05-.66.62-1.16,1.28-1.12,4.65.32,9.74,1.96,14.65,4.7,1.2.67,1.88,1.99,1.72,3.36-.02.2-.06.4-.12.59-.33,1.11-1.2,1.97-2.32,2.29-.04.01-4.64,1.38-9.48,4.49-.31.2-.67.24-.99.14Z"/>
            <path class="cls-4" d="M20.81,23.82c-.95-.28-1.72-.97-2.13-1.87-.33-.75-.39-1.58-.15-2.36.02-.08.05-.16.08-.24.32-.85.96-1.52,1.79-1.89,1.51-.68,3.21-1.13,5.04-1.34.66-.08,1.26.4,1.33,1.05.08.66-.39,1.25-1.05,1.33-1.59.19-3.05.57-4.34,1.15-.25.11-.43.3-.53.56-.09.3-.08.54.02.76.22.48.84.72,1.32.5,3.31-1.48,7.81-1.49,12.7-.02.88.26,1.77.57,2.65.92.45.18.75.61.76,1.09.01.48-.27.92-.71,1.12-1,.45-2.01.95-2.98,1.48-.58.31-1.31.1-1.63-.49s-.1-1.31.49-1.63c.17-.09.33-.18.5-.26-4.24-1.23-8.06-1.24-10.79-.02-.74.33-1.58.39-2.37.15Z"/>
            <path class="cls-4" d="M18.7,53.71s-.03,0-.05-.02c-.01,0-.03,0-.04-.01-1.31-.45-2.22-1.62-2.32-2.97-.23-3.08.08-6.08.92-8.89,1.83-6.12,6.12-11.42,12.73-15.77.55-.36,1.3-.21,1.66.34.36.55.21,1.3-.34,1.66-6.13,4.03-10.09,8.9-11.75,14.46-.76,2.53-1.04,5.23-.83,8.02.03.41.3.74.7.88h0c.36.11.78,0,1.03-.28.08-.09,7.36-7.86,19.92-6.92.27.02.52-.06.73-.24.14-.12.25-.29.3-.47.02-.07.04-.14.04-.21.04-.46-.27-.9-.7-1.03-.07-.02-.14-.03-.21-.04-.33-.02-.65-.04-.96-.06-.66-.03-1.17-.59-1.15-1.25.03-.66.59-1.17,1.25-1.15.34.02.68.04,1.02.06.23.02.48.06.73.13,1.51.45,2.53,1.93,2.41,3.51-.02.24-.06.49-.13.73-.19.62-.55,1.17-1.04,1.6-.69.59-1.57.88-2.47.81-11.3-.84-17.9,6.07-17.97,6.14-.86.96-2.24,1.34-3.49.97Z"/>
          </g>
          <g class="cls-8">
            <path class="cls-5" d="M52.09,36.82c-.27-.08-.51-.25-.67-.51-.21-.33-.43-.65-.66-.96-.39-.51-.3-1.24.19-1.65.39-.33.77-.68,1.13-1.06.46-.48,1.21-.5,1.7-.04.48.46.5,1.22.04,1.7-.17.17-.33.34-.51.51.05.07.1.15.14.22.35.56.19,1.3-.37,1.65-.31.19-.66.23-.99.13Z"/>
            <path class="cls-5" d="M21.73,46.8c-.11-.03-.21-.08-.31-.14-.4-.26-.61-.73-.53-1.21.13-.77.31-1.54.54-2.29,1.26-4.19,3.95-7.99,8.01-11.3.52-.42,1.27-.34,1.69.17.42.51.34,1.27-.17,1.69-3.45,2.82-5.81,5.99-7.01,9.44,2.87-1.5,6.76-2.93,11.55-3.33.66-.06,1.24.44,1.29,1.1.05.66-.44,1.24-1.1,1.29-5.9.49-10.3,2.68-12.96,4.43-.3.2-.67.25-1.01.15Z"/>
            <path class="cls-5" d="M52.09,36.82c-.27-.08-.51-.25-.67-.51-.2-.33-.42-.64-.66-.95-.39-.51-.31-1.24.19-1.65.39-.32.77-.68,1.13-1.06.46-.48,1.21-.5,1.7-.04.48.46.5,1.22.04,1.7-.16.17-.33.34-.51.51.05.07.09.14.14.22.35.56.18,1.3-.38,1.65-.31.19-.66.23-.98.13Z"/>
            <path class="cls-5" d="M10.61,12.52c-.15-.05-.3-.12-.43-.23-.51-.43-.57-1.19-.14-1.69,1.49-1.76,3.33-3.13,5.46-4.09,2.65-1.19,5.58-1.97,8.69-2.31.66-.08,1.25.4,1.33,1.06.07.66-.4,1.25-1.06,1.33-2.87.32-5.55,1.03-7.98,2.12-1.8.81-3.35,1.97-4.61,3.45-.32.38-.82.51-1.26.37Z"/>
            <path class="cls-5" d="M19.41,3.27c-.4-.12-.72-.44-.82-.87-.15-.65.24-1.29.89-1.45,9.21-2.2,19.96-.58,30.09,4.46.59.3.83,1.02.54,1.61-.3.59-1.01.83-1.61.54C38.87,2.78,28.69,1.23,20.03,3.29c-.21.05-.43.04-.62-.02Z"/>
            <path class="cls-5" d="M13.55,68.78c-1.88-.56-3.63-1.38-5.19-2.43-.55-.37-.7-1.11-.33-1.66.37-.55,1.11-.71,1.66-.33,1.36.91,2.89,1.62,4.54,2.12,4.64,1.39,8.81.62,8.86.61,3.41-.7,6.47-2.37,8.83-4.85.03-.03.06-.06.09-.08.46-.39,2.94-2.31,7.12-2,.21.02.43.03.64.04.67.02,1.18.58,1.15,1.24-.02.66-.58,1.18-1.24,1.15-.24,0-.49-.02-.73-.04-3.15-.24-5,1.12-5.35,1.4-2.69,2.8-6.17,4.7-10.05,5.5-.2.04-4.78.9-10.01-.67Z"/>
            <path class="cls-5" d="M2.57,55.93c-.33-.1-.62-.34-.76-.69-.26-.61.03-1.31.64-1.57,1.29-.54,2.76-1.39,4.36-2.52.54-.38,1.29-.25,1.67.29.38.54.25,1.29-.29,1.67-1.75,1.23-3.37,2.16-4.82,2.77-.27.11-.55.12-.81.04Z"/>
            <path class="cls-5" d="M1.62,37.09c-.18-.05-.35-.15-.49-.29-.47-.46-.48-1.22-.02-1.7,1.21-1.23,2.35-2.77,3.75-5.06-.28-.51-.55-1.03-.79-1.57-.31-.69-.58-1.4-.8-2.11-.2-.63.15-1.31.78-1.51.63-.2,1.31.15,1.51.78.2.62.43,1.24.7,1.85.3.67.64,1.32,1.02,1.93.23.38.24.86,0,1.24-1.68,2.8-3.01,4.63-4.46,6.11-.32.33-.79.43-1.2.31Z"/>
            <path class="cls-5" d="M.9,42.84c-.25-.08-.48-.24-.64-.47-.37-.55-.23-1.29.31-1.67,1.69-1.16,3.01-2.31,4.26-3.75.44-.5,1.19-.55,1.69-.11.5.44.55,1.19.11,1.69-1.38,1.57-2.87,2.89-4.71,4.15-.31.21-.69.26-1.02.16Z"/>
            <path class="cls-5" d="M50.21,43.3c-.45-.13-.8-.53-.85-1.02-.35-3.23-2.41-6.04-5.37-7.33-.45-.19-.73-.64-.72-1.13.01-.49.32-.92.78-1.09.09-.03.76-.28,1.08-.38h0c2.49-.72,4.55-2.47,5.65-4.79.28-.6,1-.85,1.6-.57.6.28.86,1,.57,1.6-1.17,2.47-3.19,4.43-5.67,5.53,2.48,1.88,4.13,4.73,4.47,7.91.07.66-.41,1.25-1.07,1.32-.16.02-.32,0-.47-.04Z"/>
            <path class="cls-5" d="M18.91,65.79c-.51-.15-.87-.63-.85-1.18.02-.66.57-1.18,1.23-1.17,3.74.11,7.31-1.37,9.82-4.05.7-.66,4.25-3.67,10.32-3.22,1.23.09,2.46.01,3.65-.23.65-.14,1.28.28,1.42.93.14.65-.28,1.28-.93,1.42-1.41.29-2.86.39-4.32.28-5.18-.39-8.12,2.22-8.44,2.52-2.92,3.13-7.17,4.88-11.59,4.76-.11,0-.21-.02-.31-.05Z"/>
            <path class="cls-5" d="M28.69,57.09c-.26-.08-.5-.25-.66-.5-.36-.56-.19-1.3.36-1.66,2.29-1.47,6.13-3.14,11.35-2.75,2.36.18,4.65-.56,6.46-2.08.51-.43,1.27-.36,1.69.15.43.51.36,1.26-.15,1.69-2.29,1.92-5.2,2.86-8.18,2.63-4.56-.34-7.89,1.1-9.88,2.37-.31.2-.67.24-.99.14Z"/>
            <path class="cls-5" d="M52.7,15.18c-.2-.06-.38-.17-.53-.33-.93-.99-2-1.84-3.19-2.5-.39-.22-.77-.42-1.16-.63-.59-.31-.81-1.03-.5-1.62s1.04-.82,1.62-.5c.4.21.81.43,1.21.66,1.41.79,2.68,1.78,3.78,2.96.45.49.42,1.24-.06,1.7-.32.3-.77.39-1.16.27Z"/>
            <path class="cls-5" d="M27.97,6.33c-.5-.15-.86-.61-.85-1.16,0-.66.55-1.2,1.21-1.19,5.5.05,11.27,1.37,16.93,3.84.61.26.88.97.62,1.58s-.97.89-1.58.62c-5.37-2.34-10.82-3.59-16-3.64-.12,0-.23-.02-.33-.05Z"/>
            <path class="cls-5" d="M.86,47.6c-.28-.08-.53-.27-.69-.54-.34-.57-.15-1.31.42-1.64,5.36-3.17,8.06-6.03,12.01-12.76,0,0,0,0,0-.01.62-1.08,1.32-2.14,2.08-3.17-.45-.35-.86-.74-1.25-1.16-.45-.49-.42-1.24.06-1.7s1.24-.42,1.7.06c.54.58,1.16,1.09,1.83,1.51.29.18.49.48.55.81.06.34-.03.68-.24.95-.99,1.25-1.89,2.57-2.66,3.91,0,0,0,.02-.01.03-4.14,7.04-7.14,10.22-12.84,13.59-.3.18-.65.21-.96.12Z"/>
            <path class="cls-5" d="M11.88,25.27c-.35-.1-.64-.36-.78-.73-.87-2.34-.96-4.84-.24-7.24.08-.27.17-.53.27-.8,1.09-2.85,3.22-5.1,5.99-6.34,3.74-1.68,8.21-2.41,12.91-2.11.66.04,1.16.61,1.12,1.27s-.61,1.16-1.27,1.12c-4.32-.27-8.39.39-11.78,1.91-2.19.98-3.87,2.76-4.73,5.01-.08.21-.15.42-.22.64-.57,1.89-.5,3.86.19,5.71.23.62-.08,1.31-.7,1.54-.25.09-.52.1-.76.03Z"/>
            <path class="cls-5" d="M52.48,25.36c-.52-.16-.88-.65-.85-1.21.18-3.44-1.58-6.63-4.6-8.31-4.38-2.45-8.9-4.14-13.31-4.93-.64-.11-1.08-.74-.97-1.39.12-.65.74-1.09,1.39-.97,4.67.85,9.44,2.63,14.05,5.2,3.82,2.13,6.05,6.17,5.83,10.53-.03.66-.6,1.17-1.26,1.14-.1,0-.19-.02-.28-.05Z"/>
            <path class="cls-5" d="M7.81,35.7c-.11-.03-.22-.09-.33-.15-.55-.37-.7-1.12-.33-1.67.73-1.08,1.51-2.34,2.43-3.93-.74-.96-1.36-2-1.86-3.11-1.51-3.37-1.76-7.17-.7-10.69.04-.14.09-.28.13-.42.2-.62.86-.96,1.48-.77.01,0,.02,0,.03.01.63.21.97.89.76,1.52-.04.12-.08.23-.11.35-.89,2.97-.68,6.18.59,9.02.52,1.16,1.2,2.24,2.03,3.19.33.39.39.94.13,1.38-1.14,1.98-2.07,3.5-2.93,4.78-.3.45-.85.63-1.34.48Z"/>
            <path class="cls-5" d="M1.43,52.11c-.29-.09-.55-.28-.7-.57-.32-.58-.11-1.31.47-1.63,6.15-3.41,9.49-6.55,13.23-12.43.36-.56,1.1-.72,1.66-.37.56.36.73,1.1.37,1.66-3.98,6.27-7.53,9.61-14.09,13.24-.29.16-.63.19-.93.1Z"/>
            <path class="cls-5" d="M17.15,35.85c-.09-.03-.17-.06-.26-.11-.57-.33-.77-1.07-.44-1.64l.65-1.14c1.24-2.17,2.53-3.7,3.95-5.03-.47-.05-.94-.14-1.4-.28-2.06-.62-3.75-2.1-4.63-4.07-.73-1.62-.84-3.44-.34-5.14.05-.17.11-.35.18-.52.7-1.84,2.08-3.31,3.89-4.11.73-.33,1.51-.62,2.3-.86.63-.19,1.3.16,1.5.8.19.63-.17,1.3-.8,1.5-.7.21-1.38.46-2.02.75-1.22.55-2.15,1.53-2.63,2.78-.05.12-.09.24-.12.36-.35,1.16-.27,2.36.23,3.47.59,1.33,1.73,2.33,3.13,2.75,1.15.34,2.38.26,3.48-.23.41-.18.85-.33,1.32-.45.55-.14,1.12.13,1.37.64.25.51.11,1.12-.33,1.47l-.21.17c-2.81,2.21-4.84,3.81-6.77,7.2l-.66,1.15c-.28.49-.86.7-1.38.55Z"/>
            <path class="cls-5" d="M30.34,38.88c-.29-.09-.55-.29-.7-.57-.26-.46-.18-1.04.19-1.42,5.65-5.76,13.83-8.28,14.17-8.38,1.66-.48,2.93-1.73,3.42-3.36.09-.28.15-.58.18-.87.18-1.52-.34-3.02-1.41-4.09-.47-.47-.46-1.23,0-1.7s1.23-.46,1.7,0c1.59,1.6,2.35,3.81,2.09,6.06-.05.43-.14.87-.26,1.29-.72,2.41-2.61,4.27-5.04,4.97-.05.02-5.25,1.63-10,5.08.68-.07,1.36-.11,2.05-.14.66-.03,1.22.49,1.25,1.15.02.66-.49,1.22-1.15,1.25-1.99.08-3.97.33-5.88.76-.21.05-.41.04-.61-.02Z"/>
            <path class="cls-5" d="M24.99,14.46c-.45-.13-.8-.53-.85-1.02-.07-.66.41-1.25,1.07-1.32,5.81-.62,12.55.83,19,4.04.59.3.84,1.02.54,1.61-.3.59-1.02.84-1.61.54-6.04-3.01-12.32-4.37-17.67-3.8-.16.02-.32,0-.47-.04Z"/>
            <path class="cls-5" d="M40.18,50.56c-.49-.15-.85-.59-.85-1.13-.01-.66.52-1.21,1.18-1.22,1.18-.02,2.27-.44,3.17-1.21.73-.63,1.25-1.44,1.53-2.34.1-.35.17-.71.2-1.07.17-2.32-1.32-4.49-3.54-5.16-.35-.11-.72-.17-1.06-.2,0,0-.1,0-.11,0-.67-.04-1.16-.63-1.11-1.29.05-.66.63-1.16,1.29-1.11h.09c.51.04,1.06.14,1.59.3,3.3.99,5.5,4.2,5.25,7.64-.04.54-.14,1.07-.29,1.59-.4,1.34-1.18,2.54-2.26,3.47-1.31,1.13-2.98,1.76-4.7,1.79-.13,0-.25-.02-.36-.05Z"/>
            <path class="cls-5" d="M17.55,57.54l-.14-.04c-2.9-.99-4.9-3.54-5.12-6.5-.02-.3-.06-.64-.09-1,0-.01,0-.02,0-.04-.23.2-.49.42-.76.64-.51.43-1.26.36-1.69-.15-.43-.51-.36-1.27.15-1.69,1.5-1.25,2.49-2.23,2.5-2.24.35-.34.88-.44,1.32-.24.45.2.73.65.72,1.14-.02.63.07,1.54.15,2.34.04.38.07.74.1,1.06.15,2.03,1.48,3.71,3.48,4.4l.09.03c1.8.54,3.84-.01,5.07-1.38.52-.54,5.08-5.05,13.1-5.67.66-.05,1.24.44,1.29,1.11.05.66-.44,1.24-1.11,1.29-7.25.55-11.36,4.73-11.53,4.91-1.84,2.05-4.81,2.86-7.54,2.04Z"/>
            <path class="cls-5" d="M4.53,59.66c-.32-.1-.6-.33-.75-.66-.27-.61,0-1.32.61-1.58,2.06-.92,4.13-2.3,5.51-3.29.28-.21.64-.28.98-.2.33.09.63.3.79.62,1.09,2.11,2.97,3.7,5.29,4.49l.15.05c2.79.84,5.83.27,8.11-1.53.52-.41,1.27-.32,1.68.2.41.52.32,1.28-.2,1.68-2.9,2.28-6.75,3-10.3,1.93l-.2-.06c-2.48-.85-4.56-2.42-5.97-4.5-1.38.94-3.11,2.01-4.87,2.79-.27.12-.57.13-.83.05Z"/>
            <path class="cls-5" d="M7.21,62.82c-.31-.09-.58-.31-.73-.62-.29-.59-.05-1.31.54-1.61.66-.33,1.33-.7,2.05-1.13.47-.28,1.07-.21,1.46.17,1.44,1.42,3.23,2.52,5.18,3.2.63.22.96.9.75,1.52-.21.63-.94.94-1.52.75-2-.69-3.85-1.76-5.41-3.13-.49.28-.97.53-1.45.77-.28.14-.6.16-.88.07Z"/>
            <path class="cls-5" d="M33.1,31.6c-.26-.08-.5-.25-.66-.5-.36-.56-.2-1.3.36-1.66,5.18-3.32,10.07-4.76,10.12-4.78.33-.1.59-.35.69-.67.02-.06.03-.12.04-.18.05-.4-.15-.79-.5-.99-4.6-2.57-9.35-4.11-13.64-4.4-.66-.04-1.16-.62-1.12-1.28.05-.66.62-1.16,1.28-1.12,4.65.32,9.74,1.96,14.65,4.7,1.2.67,1.88,1.99,1.72,3.36-.02.2-.06.4-.12.59-.33,1.11-1.2,1.97-2.32,2.29-.04.01-4.64,1.38-9.48,4.49-.31.2-.67.24-.99.14Z"/>
            <path class="cls-5" d="M20.81,23.82c-.95-.28-1.72-.97-2.13-1.87-.33-.75-.39-1.58-.15-2.36.02-.08.05-.16.08-.24.32-.85.96-1.52,1.79-1.89,1.51-.68,3.21-1.13,5.04-1.34.66-.08,1.26.4,1.33,1.05.08.66-.39,1.25-1.05,1.33-1.59.19-3.05.57-4.34,1.15-.25.11-.43.3-.53.56-.09.3-.08.54.02.76.22.48.84.72,1.32.5,3.31-1.48,7.81-1.49,12.7-.02.88.26,1.77.57,2.65.92.45.18.75.61.76,1.09.01.48-.27.92-.71,1.12-1,.45-2.01.95-2.98,1.48-.58.31-1.31.1-1.63-.49s-.1-1.31.49-1.63c.17-.09.33-.18.5-.26-4.24-1.23-8.06-1.24-10.79-.02-.74.33-1.58.39-2.37.15Z"/>
            <path class="cls-5" d="M18.7,53.71s-.03,0-.05-.02c-.01,0-.03,0-.04-.01-1.31-.45-2.22-1.62-2.32-2.97-.23-3.08.08-6.08.92-8.89,1.83-6.12,6.12-11.42,12.73-15.77.55-.36,1.3-.21,1.66.34.36.55.21,1.3-.34,1.66-6.13,4.03-10.09,8.9-11.75,14.46-.76,2.53-1.04,5.23-.83,8.02.03.41.3.74.7.88h0c.36.11.78,0,1.03-.28.08-.09,7.36-7.86,19.92-6.92.27.02.52-.06.73-.24.14-.12.25-.29.3-.47.02-.07.04-.14.04-.21.04-.46-.27-.9-.7-1.03-.07-.02-.14-.03-.21-.04-.33-.02-.65-.04-.96-.06-.66-.03-1.17-.59-1.15-1.25.03-.66.59-1.17,1.25-1.15.34.02.68.04,1.02.06.23.02.48.06.73.13,1.51.45,2.53,1.93,2.41,3.51-.02.24-.06.49-.13.73-.19.62-.55,1.17-1.04,1.6-.69.59-1.57.88-2.47.81-11.3-.84-17.9,6.07-17.97,6.14-.86.96-2.24,1.34-3.49.97Z"/>
          </g>
        </g>
      </g>
    </g>
  </g>
</svg>